<?xml version="1.0" encoding="utf-8"?>
<!-- Generator: Adobe Illustrator 25.4.1, SVG Export Plug-In . SVG Version: 6.00 Build 0)  -->
<!DOCTYPE svg PUBLIC "-//W3C//DTD SVG 1.1//EN" "http://www.w3.org/Graphics/SVG/1.1/DTD/svg11.dtd" [
	<!ENTITY ns_extend "http://ns.adobe.com/Extensibility/1.0/">
	<!ENTITY ns_ai "http://ns.adobe.com/AdobeIllustrator/10.0/">
	<!ENTITY ns_graphs "http://ns.adobe.com/Graphs/1.0/">
	<!ENTITY ns_vars "http://ns.adobe.com/Variables/1.0/">
	<!ENTITY ns_imrep "http://ns.adobe.com/ImageReplacement/1.0/">
	<!ENTITY ns_sfw "http://ns.adobe.com/SaveForWeb/1.0/">
	<!ENTITY ns_custom "http://ns.adobe.com/GenericCustomNamespace/1.0/">
	<!ENTITY ns_adobe_xpath "http://ns.adobe.com/XPath/1.0/">
]>
<svg version="1.1" xmlns:x="&ns_extend;" xmlns:i="&ns_ai;" xmlns:graph="&ns_graphs;"
	 xmlns="http://www.w3.org/2000/svg" xmlns:xlink="http://www.w3.org/1999/xlink" x="0px" y="0px" viewBox="0 0 166.4 138.6"
	 style="enable-background:new 0 0 166.4 138.6;" xml:space="preserve">
<style type="text/css">
	.st0{fill:#FFFFFF;}
	.st1{fill-rule:evenodd;clip-rule:evenodd;fill:#FFFFFF;}
</style>
<metadata>
	<sfw  xmlns="&ns_sfw;">
		<slices></slices>
		<sliceSourceBounds  bottomLeftOrigin="true" height="107.3" width="130.9" x="14.8" y="12.6"></sliceSourceBounds>
	</sfw>
</metadata>
<g id="Background">
</g>
<g id="Foreground">
</g>
<g id="Guides">
	<g>
		<path class="st0" d="M145.4,113.3H15c-0.1,0-0.2,0.1-0.2,0.2c0,0.1,0.1,0.2,0.2,0.2h130.4c0.1,0,0.2-0.1,0.2-0.2
			C145.6,113.4,145.5,113.3,145.4,113.3z"/>
		<path class="st0" d="M71.4,95.3h-6.8c-0.3,0-0.4-0.2-0.4-0.4c0-0.1,0.1-0.4,0.5-0.4h9.3c1.5,0,2.6-1.2,2.6-2.6
			c0-1.4-1.2-2.6-2.6-2.6h-9.5c-3,0-5.5,2.4-5.5,5.5c0,3,2.4,5.3,5.5,5.3h6.1c0.2,0,0.4,0.1,0.4,0.3c0,0.2-0.2,0.3-0.4,0.3h-9
			c-1,0-1.9,0.6-2.3,1.5c-0.4-1-1.4-1.8-2.5-1.8h-3.3v-1h2.7c1.1,0,2-0.9,2-2c0-1.1-0.9-2-2-2h-2.6v-1l3.3,0c1.4,0,2.6-1.1,2.6-2.6
			c0-1.4-1.1-2.6-2.5-2.6h-6c-1.5,0-2.6,1.2-2.6,2.6v9.5l-5.2-10.7c-0.5-0.9-1.5-1.5-2.5-1.5c-0.9,0-1.7,0.5-2.2,1.3l-5.5,12.1
			c0,0.2-0.1,0.4-0.1,0.6c0,1.4,1.2,2.6,2.6,2.6c0.7,0,1.4-0.3,1.9-0.8c0.4-0.4,0.7-1,0.7-1.6h5.4c0,0.6,0.3,1.2,0.7,1.6
			c0.5,0.5,1.1,0.7,1.8,0.7h10.8c1,0,1.9-0.6,2.3-1.6h0c0.4,1,1.3,1.7,2.5,1.7h9.7c3,0,5.3-2.4,5.3-5.4
			C76.6,97.5,74.4,95.3,71.4,95.3z M41.7,99.6l-1.7,0l0.8-2L41.7,99.6z"/>
		<path class="st0" d="M128,100.7h-3.2v-8.8c0-1.4-1.2-2.5-2.6-2.5c-1.4,0-2.6,1.1-2.6,2.5l0,8.7l-0.6,0l-4.7-9.8
			c-0.5-0.8-1.4-1.4-2.3-1.4c-1,0-1.8,0.5-2.3,1.4l-5.4,11.9c-0.3-1.1-1.2-1.9-2.4-1.9l-3.3,0v-1h2.7c1.1,0,2-0.9,2-2
			c0-1.1-0.9-2-2-2h-2.6v-1l3.1,0c1.5,0,2.7-1.2,2.7-2.6c0-1.5-1.1-2.6-2.6-2.6H81.5c-3,0-5.5,2.4-5.5,5.5c0,3,2.4,5.5,5.5,5.5
			c0,0,0,0,0,0l6.1,0c0.2,0,0.4,0.1,0.4,0.3c0,0.2-0.2,0.3-0.4,0.3h-9c-0.8,0-1.5,0.2-1.9,0.6c-0.4,0.4-0.7,1.1-0.7,1.8
			c0,1.4,1.2,2.5,2.7,2.5h9.6c2.2,0,4-1.1,4.8-2.7c0,0,0,0,0,0l0,0.1c0.1,1.5,1.2,2.6,2.6,2.6h5.9c1.2,0,2.2-0.8,2.5-1.9
			c0.3,1.1,1.3,1.9,2.5,1.9c1.4,0,2.6-1.1,2.8-2.4l5.2,0l0,0c0,0.6,0.2,1.2,0.6,1.6c0.5,0.5,1.1,0.8,1.9,0.8h10.7
			c1.5,0,2.6-1.2,2.6-2.6C130.6,101.9,129.4,100.7,128,100.7z M112.8,99.7l-1.8,0l0.8-1.8L112.8,99.7z M93.1,98
			c-0.8-1.7-2.6-2.7-4.7-2.7h-6.8c-0.2,0-0.4-0.2-0.4-0.3c0-0.2,0.1-0.3,0.3-0.3l11.5,0L93.1,98z"/>
		<path class="st1" d="M128.8,91.1h0.3l0.4,0.7h0.3l-0.5-0.8c0.3,0,0.5-0.2,0.5-0.5c0-0.4-0.2-0.5-0.6-0.5h-0.7v1.7h0.3V91.1z
			 M128.8,90.9v-0.5h0.3c0.2,0,0.4,0,0.4,0.2c0,0.3-0.2,0.3-0.4,0.3H128.8z M130.7,91c0-0.9-0.7-1.6-1.5-1.6c-0.8,0-1.5,0.6-1.5,1.6
			c0,0.9,0.6,1.6,1.5,1.6C130,92.6,130.7,91.9,130.7,91z M130.3,91c0,0.8-0.5,1.3-1.2,1.3c-0.7,0-1.2-0.6-1.2-1.3
			c0-0.8,0.5-1.3,1.2-1.3C129.8,89.7,130.3,90.2,130.3,91z"/>
		<path class="st0" d="M47.9,68.8h24.4c0,0,0.5,0,0.7,0.2c0.2,0.1,0.4,0.4,0.4,0.4l3.2,5.4c0,0,0.3,0.4,0.5,0.5
			c0.2,0.1,0.6,0.1,0.6,0.1h37.9c0,0,1.6,0,2.4,0.5c0.8,0.4,1.7,1.6,1.7,1.6l2.4,3.9c0,0,0.4,1,0,1.6c-0.6,0.8-1.2,0.7-1.2,0.7H80.8
			c0,0-0.6,0-0.9-0.2c-0.3-0.2-0.7-0.7-0.7-0.7l-4-6.6c0,0-0.2-0.4-0.5-0.6c-0.3-0.2-0.9-0.1-0.9-0.1H44.6c0,0-0.8,0.1-1-0.3
			c-0.3-0.4,0.1-0.9,0.1-0.9l2.9-4.6c0,0,0.3-0.5,0.5-0.6C47.5,68.8,47.9,68.8,47.9,68.8z"/>
		<path class="st0" d="M63.5,44l8.7,0c0,0,0.5,0,0.7,0.2c0.2,0.1,0.4,0.4,0.4,0.4l3.2,5.4c0,0,0.3,0.4,0.5,0.5
			c0.2,0.1,0.6,0.1,0.6,0.1h22c0,0,1.6,0,2.4,0.5c0.8,0.4,1.7,1.6,1.7,1.6l2,3.3c0,0,0.7,1.2,0.1,2.2c-0.5,0.8-1.8,0.8-1.8,0.8H80.6
			c0,0-0.6,0-0.9-0.2c-0.3-0.2-0.7-0.7-0.7-0.7l-4-6.6c0,0-0.2-0.4-0.5-0.6c-0.3-0.2-0.9-0.1-0.9-0.1H60.2c0,0-0.8,0.1-1-0.3
			c-0.3-0.4,0.1-0.9,0.1-0.9l2.9-4.6c0,0,0.3-0.5,0.5-0.6C63,44,63.5,44,63.5,44z"/>
		<path class="st0" d="M80.2,18.6c1.8,0,3,2.1,3,2.1L97.6,43c0,0,0.8,1.2,0.2,2.3c-0.5,1-1.9,1-1.9,1H80.4c0,0-0.6,0-0.8-0.2
			c-0.3-0.2-0.6-0.6-0.6-0.6l-4-6.5c0,0-0.4-0.4-0.7-0.6c-0.4-0.2-1-0.2-1-0.2h-4.7c0,0-1.1,0.1-1.3-0.5c-0.3-0.7,0.3-1.4,0.3-1.4
			L77,20.9C77,20.9,78.1,18.6,80.2,18.6z"/>
		<path class="st0" d="M55.8,56.4h16.6c0,0,0.5,0,0.7,0.2c0.2,0.1,0.4,0.4,0.4,0.4l3.2,5.4c0,0,0.3,0.4,0.5,0.5
			c0.2,0.1,0.6,0.1,0.6,0.1h29.8c0,0,1.6,0,2.4,0.5c0.8,0.4,1.7,1.6,1.7,1.6l2,3.3c0,0,0.7,1.2,0.1,2.2c-0.5,0.8-1.8,0.8-1.8,0.8
			H80.8c0,0-0.6,0-0.9-0.2c-0.3-0.2-0.7-0.7-0.7-0.7l-4-6.6c0,0-0.2-0.4-0.5-0.6c-0.3-0.2-0.9-0.1-0.9-0.1H52.5c0,0-0.8,0.1-1-0.3
			c-0.3-0.4,0.1-0.9,0.1-0.9l2.9-4.6c0,0,0.3-0.5,0.5-0.6C55.3,56.4,55.8,56.4,55.8,56.4z"/>
		<g>
			<path class="st0" d="M15,120.3h3.8v0.6h-3.1v1.8h2.9v0.6h-2.9v1.9h3.1v0.6H15V120.3z"/>
			<path class="st0" d="M20.3,120.3H21l2.9,4.5h0v-4.5h0.7v5.5h-0.8l-2.9-4.4h0v4.4h-0.7V120.3z"/>
			<path class="st0" d="M28.6,125.8h-0.8l-1.9-5.5h0.8l1.6,4.8h0l1.6-4.8h0.8L28.6,125.8z"/>
			<path class="st0" d="M31.7,120.3h0.7v5.5h-0.7V120.3z"/>
			<path class="st0" d="M34.3,120.3h2.6c1,0,1.7,0.6,1.7,1.4c0,0.7-0.3,1.2-1,1.4v0c0.6,0.1,0.8,0.6,0.8,1.1c0,0.5,0,1.1,0.3,1.5
				h-0.8c-0.2-0.2-0.1-0.8-0.2-1.4c-0.1-0.5-0.2-1-0.9-1H35v2.4h-0.7V120.3z M36.5,122.9c0.7,0,1.3-0.2,1.3-1c0-0.5-0.3-0.9-1-0.9
				H35v1.9H36.5z"/>
			<path class="st0" d="M42.5,120.2c1.7,0,2.6,1.4,2.6,2.9s-0.9,2.9-2.6,2.9s-2.6-1.4-2.6-2.9S40.7,120.2,42.5,120.2z M42.5,125.3
				c1.3,0,1.9-1.2,1.9-2.3s-0.6-2.3-1.9-2.3s-1.9,1.2-1.9,2.3S41.1,125.3,42.5,125.3z"/>
			<path class="st0" d="M46.6,120.3h0.8l2.9,4.5h0v-4.5H51v5.5h-0.8l-2.9-4.4h0v4.4h-0.7V120.3z"/>
			<path class="st0" d="M52.7,120.3h1l1.7,4.6l1.7-4.6h1v5.5h-0.7v-4.6h0l-1.7,4.6h-0.6l-1.7-4.6h0v4.6h-0.7V120.3z"/>
			<path class="st0" d="M60,120.3h3.8v0.6h-3.1v1.8h2.9v0.6h-2.9v1.9h3.1v0.6H60V120.3z"/>
			<path class="st0" d="M65.3,120.3h0.8l2.9,4.5h0v-4.5h0.7v5.5h-0.8l-2.9-4.4h0v4.4h-0.7V120.3z"/>
			<path class="st0" d="M72.7,120.9h-1.8v-0.6h4.4v0.6h-1.8v4.9h-0.7V120.9z"/>
			<path class="st0" d="M77.4,120.3h0.8l2.1,5.5h-0.8l-0.6-1.7h-2.3l-0.6,1.7h-0.8L77.4,120.3z M78.7,123.5l-0.9-2.6h0l-0.9,2.6
				H78.7z"/>
			<path class="st0" d="M81.4,120.3h0.7v4.9h2.9v0.6h-3.6V120.3z"/>
			<path class="st0" d="M90.3,120.9h-1.8v-0.6h4.4v0.6H91v4.9h-0.7V120.9z"/>
			<path class="st0" d="M94,120.3h3.8v0.6h-3.1v1.8h2.9v0.6h-2.9v1.9h3.1v0.6H94V120.3z"/>
			<path class="st0" d="M101.7,120.2c1.1,0,2.1,0.6,2.3,1.8h-0.7c-0.2-0.8-0.8-1.2-1.5-1.2c-1.3,0-1.9,1.1-1.9,2.2
				c0,1.3,0.6,2.3,1.9,2.3c1,0,1.5-0.7,1.6-1.6h0.7c-0.1,1.4-1,2.2-2.4,2.2c-1.7,0-2.5-1.3-2.5-2.9S100,120.2,101.7,120.2z"/>
			<path class="st0" d="M105.5,120.3h0.7v2.4h2.9v-2.4h0.7v5.5h-0.7v-2.5h-2.9v2.5h-0.7V120.3z"/>
			<path class="st0" d="M111.6,120.3h0.8l2.9,4.5h0v-4.5h0.7v5.5h-0.8l-2.9-4.4h0v4.4h-0.7V120.3z"/>
			<path class="st0" d="M120.1,120.2c1.8,0,2.6,1.4,2.6,2.9s-0.9,2.9-2.6,2.9c-1.7,0-2.6-1.4-2.6-2.9S118.3,120.2,120.1,120.2z
				 M120.1,125.3c1.3,0,1.9-1.2,1.9-2.3s-0.6-2.3-1.9-2.3s-1.9,1.2-1.9,2.3S118.7,125.3,120.1,125.3z"/>
			<path class="st0" d="M124.2,120.3h0.7v4.9h2.9v0.6h-3.6V120.3z"/>
			<path class="st0" d="M131.1,120.2c1.8,0,2.6,1.4,2.6,2.9s-0.9,2.9-2.6,2.9c-1.7,0-2.6-1.4-2.6-2.9S129.4,120.2,131.1,120.2z
				 M131.1,125.3c1.3,0,1.9-1.2,1.9-2.3s-0.6-2.3-1.9-2.3s-1.9,1.2-1.9,2.3S129.8,125.3,131.1,125.3z"/>
			<path class="st0" d="M137.6,120.2c1.2,0,2.2,0.5,2.4,1.8h-0.7c-0.1-0.8-0.8-1.2-1.6-1.2c-1.3,0-1.9,1.2-1.9,2.3
				c0,1.1,0.7,2.2,1.9,2.2c1.1,0,1.8-0.8,1.8-1.8h-1.8v-0.6h2.4v2.9h-0.5l-0.2-0.7c-0.4,0.6-1.1,0.8-1.8,0.8c-1.6,0-2.6-1.3-2.6-2.8
				C134.9,121.6,135.8,120.2,137.6,120.2z"/>
			<path class="st0" d="M143.5,123.6v2.2h-0.7v-2.2l-2.1-3.3h0.9l1.6,2.6l1.6-2.6h0.8L143.5,123.6z"/>
		</g>
	</g>
</g>
</svg>
