<?xml version="1.0" encoding="UTF-8"?>
<svg width="342px" height="110px" viewBox="0 0 342 110" version="1.1" xmlns="http://www.w3.org/2000/svg" xmlns:xlink="http://www.w3.org/1999/xlink">
    <!-- Generator: Sketch 46.2 (44496) - http://www.bohemiancoding.com/sketch -->
    <title>Group 7</title>
    <desc>Created with Sketch.</desc>
    <defs>
        <polygon id="path-1" points="109.218883 109.219585 0 109.219585 0 0 341.349814 0 341.349814 109.219585 109.218883 109.219585 109.218883 0.000403458262 9.46025901e-05 0.000403458262 9.46025901e-05 109.220716 109.218883 109.220716"></polygon>
    </defs>
    <g id="Circles-DesignONLY" stroke="none" stroke-width="1" fill="none" fill-rule="evenodd">
        <g id="Circles" transform="translate(-507.000000, -496.000000)">
            <g id="20%-#FFFFFF" transform="translate(159.000000, 421.000000)">
                <g id="Group-7" transform="translate(348.000000, 75.000000)">
                    <mask id="mask-2" fill="white">
                        <use xlink:href="#path-1"></use>
                    </mask>
                    <g id="Clip-2"></g>
                    <path d="M54.4109345,0.000368739033 C24.251997,0.10847636 -0.1092833,24.647362 0.000368715787,54.8062995 C0.110020732,84.9683259 24.6489064,109.328062 54.8078439,109.219954 C84.9667815,109.108758 109.329606,84.5714165 109.21841,54.4109345 C109.110302,24.2504526 84.5714164,-0.109283277 54.4109345,0.000368739033 M54.4371892,6.82659282 C80.7845609,6.72929597 102.297978,28.0882731 102.392186,54.4356448 C102.487938,80.7845609 81.1305053,102.296433 54.7831336,102.392186 C28.4357619,102.487938 6.92234527,81.1305053 6.82504841,54.7831336 C6.73084034,28.4342175 28.0882731,6.92080089 54.4371892,6.82659282" id="Fill-1" fill-opacity="0.2" fill="#FFFFFF"></path>
                    <path d="M165.109713,4.00015865 C151.746067,4.04803489 140.950748,14.9205728 141.000169,28.2857636 C141.048045,41.6478656 151.920583,52.4416394 165.28423,52.3937631 C178.64942,52.3458869 189.443194,41.473349 189.395318,28.1081582 C189.345897,14.7460562 178.473359,3.95228242 165.109713,4.00015865 M165.179211,23.1552847 C167.959121,23.144474 170.227837,25.3977457 170.237103,28.177656 C170.247914,30.9575662 167.994642,33.2278263 165.214732,33.238637 C162.436366,33.2479034 160.166106,30.9961761 160.155295,28.2162658 C160.146029,25.4363556 162.3993,23.1660955 165.179211,23.1552847" id="Fill-4" fill-opacity="0.2" fill="#FFFFFF"></path>
                    <path d="M242.993874,41.0001594 C229.695092,41.0480356 218.952283,51.8680641 219.000159,65.1683903 C219.048036,78.4687165 229.869609,89.2099809 243.16839,89.1621047 C256.468717,89.1126841 267.209981,78.2926556 267.16056,64.9938737 C267.112684,51.6950919 256.292656,40.9522832 242.993874,41.0001594 M243.009318,45.0140409 C254.073361,44.9738867 263.108069,53.9437305 263.148223,65.0077733 C263.188377,76.0733605 254.220078,85.1096133 243.154491,85.1482231 C232.087359,85.1883774 223.054195,76.220078 223.012497,65.1544908 C222.973887,54.0889036 231.94373,45.0541952 243.009318,45.0140409" id="Fill-6" fill-opacity="0.2" fill="#FFFFFF"></path>
                    <path d="M242.497329,48.0001064 C233.352969,48.0325387 225.967674,55.4718874 226.000106,64.6162478 C226.034083,73.7590638 233.473432,81.1443587 242.616248,81.110382 C251.760608,81.0779497 259.145903,73.6401454 259.113471,64.495785 C259.079494,55.3529691 251.640145,47.9676741 242.497329,48.0001064 M242.511229,52.0139879 C249.427028,51.9877332 255.074879,57.5938856 255.099589,64.5096846 C255.1243,71.4254835 249.518147,77.0717902 242.602348,77.0980449 C235.686549,77.1227552 230.040243,71.5181472 230.015532,64.6008039 C229.989278,57.6850049 235.59543,52.0386983 242.511229,52.0139879" id="Fill-8" fill-opacity="0.2" fill="#FFFFFF"></path>
                    <path d="M341.443184,40.1344127 C341.49106,53.5104143 330.686475,64.3953074 317.308929,64.4431836 C303.932928,64.4910598 293.048035,53.6864753 293.000158,40.3089293 C292.952282,26.9329278 303.756867,16.0480347 317.134413,16.0001585 C330.510414,15.9522823 341.395307,26.7568668 341.443184,40.1344127" id="Fill-11" fill-opacity="0.2" fill="#FFFFFF"></path>
                </g>
            </g>
        </g>
    </g>
</svg>